<svg width="20" height="20" viewBox="0 0 20 20" fill="none" xmlns="http://www.w3.org/2000/svg">
<g id="&#231;&#188;&#150;&#232;&#190;&#145;">
<g id="Group 427324724">
<path id="Rectangle 34625860" d="M10.2672 12.4937C9.94403 12.3416 9.95069 11.8326 10.278 11.6706C12.0764 10.7807 12.9516 9.90824 13.7002 7.58993C13.836 7.16931 14.4452 7.15973 14.5716 7.57582C15.2704 9.87521 16.1507 10.7206 17.9059 11.5581C18.2259 11.7107 18.2192 12.2138 17.8951 12.3762C16.1174 13.2666 15.2146 14.1392 14.4554 16.4606C14.318 16.8807 13.7089 16.8895 13.584 16.4728C12.8957 14.1761 12.0431 13.3297 10.2672 12.4937Z" stroke="white" stroke-opacity="0.95" stroke-width="1.5" stroke-linejoin="round"/>
<g id="Group 427324722">
<path id="Vector 1739" d="M2 3.00001H17.9275" stroke="white" stroke-opacity="0.95" stroke-width="1.5" stroke-linecap="round"/>
<path id="Vector 1740" d="M2 9.15626H7.77788" stroke="white" stroke-opacity="0.95" stroke-width="1.5" stroke-linecap="round"/>
<path id="Vector 1741" d="M2 15.3399H7.77789" stroke="white" stroke-opacity="0.95" stroke-width="1.5" stroke-linecap="round"/>
</g>
</g>
</g>
</svg>
