<svg width="21" height="21" viewBox="0 0 21 21" fill="none" xmlns="http://www.w3.org/2000/svg">
<g clip-path="url(#clip0_390_8002)">
<g style="mix-blend-mode:darken" opacity="0.01">
<rect x="0.542969" y="0.399902" width="20" height="20" fill="#1E1F20"/>
</g>
<path fill-rule="evenodd" clip-rule="evenodd" d="M10.7929 3.66787C10.7929 2.53129 12.184 1.98768 12.9567 2.81558L18.7728 9.04707C19.221 9.52733 19.221 10.2726 18.7728 10.7529L12.9567 16.9844C12.1831 17.8133 10.7929 17.2668 10.7929 16.1317V13.6167C10.0261 13.5747 9.06781 13.5538 7.98795 13.9389C6.82309 14.3543 5.4441 15.272 4.06082 17.3272C3.72761 17.8222 3.15572 17.979 2.67849 17.8546C2.18322 17.7254 1.74407 17.2733 1.77715 16.6231C2.10317 10.2135 6.55883 6.97617 10.7929 6.24887V3.66787ZM12.2929 4.30274V6.45331C12.2929 7.09885 11.8104 7.60806 11.2136 7.70004C7.69951 8.24168 4.02402 10.7233 3.36313 15.7289C4.73404 13.9458 6.1541 13.0003 7.4841 12.526C8.94395 12.0054 10.2271 12.0806 11.033 12.1279C11.0514 12.129 11.0695 12.13 11.0874 12.1311C11.743 12.1692 12.2929 12.7097 12.2929 13.3997V15.4972L17.517 9.89997L12.2929 4.30274Z" fill="white" fill-opacity="0.95"/>
</g>
<defs>
<clipPath id="clip0_390_8002">
<rect width="20" height="20" fill="white" transform="translate(0.542969 0.399902)"/>
</clipPath>
</defs>
</svg>
