<svg width="21" height="21" viewBox="0 0 21 21" fill="none" xmlns="http://www.w3.org/2000/svg">
<path fill-rule="evenodd" clip-rule="evenodd" d="M17.542 3.81584C17.9562 3.81584 18.292 4.15162 18.292 4.56584V12.7998C18.292 13.214 17.9562 13.5498 17.542 13.5498C17.1278 13.5498 16.792 13.214 16.792 12.7998V4.56584C16.792 4.15162 17.1278 3.81584 17.542 3.81584ZM7.06196 16.481L7.36111 14.9996H4.90412C3.28714 14.9996 2.04431 13.6569 2.04431 12.0999V10.7001C2.04431 10.3232 2.11618 9.97505 2.23738 9.65621L2.24567 9.63442L4.3056 4.68431C4.72815 3.64924 5.73847 2.90116 6.94382 2.90116H13.0629C14.6799 2.90116 15.9228 4.24388 15.9228 5.80092V12.7998C15.9228 13.5744 15.6212 14.3026 15.0921 14.8373L10.922 19.1366C10.1719 19.9098 8.93209 19.9132 8.17778 19.1441L7.75124 18.7092C7.30317 18.2479 7.028 17.6099 7.028 16.9221V16.8539L7.06196 16.481ZM14.0216 13.7866L9.84529 18.0922C9.68224 18.2603 9.41271 18.261 9.24873 18.0938L8.82715 17.664C8.64358 17.475 8.528 17.209 8.528 16.9221L8.54839 16.6981L9.12173 13.859C9.15925 13.6732 9.01721 13.4996 8.82766 13.4996H4.90412C4.15622 13.4996 3.54431 12.8698 3.54431 12.0999V10.7001C3.54431 10.5181 3.57831 10.3502 3.6395 10.1892L5.6928 5.25502C5.89677 4.7511 6.37951 4.40116 6.94382 4.40116H13.0629C13.8108 4.40116 14.4228 5.03105 14.4228 5.80092V12.7998C14.4228 13.1847 14.2732 13.5346 14.0216 13.7866Z" fill="white" fill-opacity="0.95"/>
</svg>
