<svg width="21" height="21" viewBox="0 0 21 21" fill="none" xmlns="http://www.w3.org/2000/svg">
<g clip-path="url(#clip0_390_7984)">
<path fill-rule="evenodd" clip-rule="evenodd" d="M3.54395 17.984C3.12973 17.984 2.79395 17.6482 2.79395 17.234V9.00004C2.79395 8.58583 3.12973 8.25004 3.54395 8.25004C3.95816 8.25004 4.29395 8.58583 4.29395 9.00004V17.234C4.29395 17.6482 3.95816 17.984 3.54395 17.984ZM14.024 5.31881L13.7248 6.80016H16.1818C17.7988 6.80016 19.0416 8.14288 19.0416 9.69992V11.0997C19.0416 11.4766 18.9698 11.8248 18.8486 12.1436L18.8403 12.1654L16.7803 17.1156C16.3577 18.1506 15.3474 18.8986 14.1421 18.8986H8.02299C6.40601 18.8986 5.16319 17.5559 5.16319 15.9989V9.00004C5.16319 8.22539 5.46472 7.49717 5.99379 6.96248L10.1639 2.66324C10.914 1.88996 12.1538 1.88655 12.9082 2.6557L13.3347 3.09064C13.7828 3.55188 14.0579 4.18988 14.0579 4.87772V4.94589L14.024 5.31881ZM7.06433 8.0132L11.2406 3.70762C11.4037 3.53951 11.6732 3.53877 11.8372 3.70598L12.2588 4.13585C12.4424 4.32481 12.5579 4.59077 12.5579 4.87772L12.5375 5.10169L11.9642 7.94077C11.9267 8.12656 12.0687 8.30016 12.2583 8.30016H16.1818C16.9297 8.30016 17.5416 8.93005 17.5416 9.69992V11.0997C17.5416 11.2817 17.5076 11.4496 17.4464 11.6106L15.3931 16.5448C15.1892 17.0487 14.7064 17.3986 14.1421 17.3986H8.02299C7.2751 17.3986 6.66319 16.7688 6.66319 15.9989V9.00004C6.66319 8.6151 6.81276 8.26516 7.06433 8.0132Z" fill="white" fill-opacity="0.95"/>
</g>
<defs>
<clipPath id="clip0_390_7984">
<rect width="20" height="20" fill="white" transform="translate(0.542969 0.399902)"/>
</clipPath>
</defs>
</svg>
