<svg width="21" height="21" viewBox="0 0 21 21" fill="none" xmlns="http://www.w3.org/2000/svg">
<path fill-rule="evenodd" clip-rule="evenodd" d="M13.5398 4.1499L5.08887 4.14999C4.95075 4.14999 4.8388 4.262 4.83887 4.40012L4.84371 13.9C4.84378 14.038 4.95569 14.1499 5.09371 14.1499H13.5435C13.6816 14.1499 13.7935 14.0379 13.7935 13.8999V6.15056L13.7898 4.39937C13.7895 4.2615 13.6776 4.1499 13.5398 4.1499ZM15.2935 6.89986V13.8999C15.2935 14.8664 14.51 15.6499 13.5435 15.6499H7.29349V16.3999C7.29349 16.5379 7.40542 16.6499 7.54349 16.6499H16.0207C16.1587 16.6499 16.2707 16.5379 16.2707 16.3999V7.14986C16.2707 7.01179 16.1587 6.89986 16.0207 6.89986H15.2935ZM5.79349 15.6499H5.09371C4.12756 15.6499 3.3442 14.8669 3.34371 13.9007L3.33887 4.40088C3.33837 3.43403 4.12202 2.64999 5.08887 2.64999L11.5376 2.64999L13.5397 2.6499C14.5048 2.64986 15.2877 3.4311 15.2898 4.39617L15.2919 5.39986H16.0207C16.9872 5.39986 17.7707 6.18336 17.7707 7.14986V16.3999C17.7707 17.3664 16.9872 18.1499 16.0207 18.1499H7.54349C6.57699 18.1499 5.79349 17.3664 5.79349 16.3999V15.6499Z" fill="white" fill-opacity="0.95"/>
<path fill-rule="evenodd" clip-rule="evenodd" d="M6.54297 7.1499C6.54297 6.73569 6.87876 6.3999 7.29297 6.3999H11.793C12.2072 6.3999 12.543 6.73569 12.543 7.1499C12.543 7.56412 12.2072 7.8999 11.793 7.8999H7.29297C6.87876 7.8999 6.54297 7.56412 6.54297 7.1499Z" fill="white" fill-opacity="0.95"/>
<path fill-rule="evenodd" clip-rule="evenodd" d="M6.54297 10.6431C6.54297 10.2289 6.87875 9.89307 7.29297 9.89307H10.593C11.0072 9.89307 11.343 10.2289 11.343 10.6431C11.343 11.0573 11.0072 11.3931 10.593 11.3931H7.29297C6.87876 11.3931 6.54297 11.0573 6.54297 10.6431Z" fill="white" fill-opacity="0.95"/>
</svg>
